<svg width="40" height="40" viewBox="0 0 40 40" fill="none" xmlns="http://www.w3.org/2000/svg">
<g clip-path="url(#clip0)">
<path d="M20.0001 0.833374C31.05 0.833374 40 9.63336 40 20.4867C40 29.1717 34.27 36.5367 26.325 39.1333C25.3251 39.3183 24.9584 38.71 24.9584 38.1883C24.9584 37.7217 24.9751 36.485 24.9834 34.8467C30.5467 36.0317 31.72 32.21 31.72 32.21C32.63 29.9417 33.945 29.335 33.945 29.335C35.7567 28.1167 33.805 28.1417 33.805 28.1417C31.7967 28.2783 30.7417 30.1667 30.7417 30.1667C28.9584 33.1717 26.06 32.3033 24.9167 31.8017C24.7367 30.53 24.2217 29.665 23.6501 29.1733C28.0917 28.6817 32.76 26.9917 32.76 19.4617C32.76 17.3167 31.985 15.5634 30.7017 14.1884C30.9267 13.6917 31.6017 11.6934 30.5267 8.9867C30.5267 8.9867 28.8517 8.46003 25.0267 11.0017C23.4267 10.565 21.7267 10.3484 20.0267 10.3384C18.3267 10.3484 16.6267 10.565 15.0268 11.0017C11.2268 8.46003 9.55177 8.9867 9.55177 8.9867C8.47678 11.6934 9.15178 13.6917 9.35177 14.1884C8.07678 15.5634 7.30178 17.3167 7.30178 19.4617C7.30178 27.0117 11.9768 28.6733 16.4267 29.1567C15.7268 29.7467 15.0768 30.9517 15.0768 32.7933C15.0768 35.4233 15.1018 37.5367 15.1018 38.175C15.1018 38.69 14.7518 39.305 13.7268 39.1083C5.72512 36.5283 0.000137329 29.1583 0.000137329 20.4867C0.000137329 9.63336 8.95511 0.833374 20.0001 0.833374Z" fill="#B3B9FF"/>
</g>
<defs>
<clipPath id="clip0">
<rect width="39.9999" height="39.9999" fill="white" transform="matrix(-1 0 0 1 40 0)"/>
</clipPath>
</defs>
</svg>
